<!-- All Users / Outline -->
<svg xmlns="http://www.w3.org/2000/svg" width="24" height="24" viewBox="0 0 24 24" fill="none" stroke="currentColor" stroke-width="1.8" stroke-linecap="round" stroke-linejoin="round">
  <!-- front user -->
  <path d="M12 13.5c-3.2 0-5.8 1.9-6.5 4.7-.1.4.2.8.6.8h11.8c.4 0 .7-.4.6-.8-.7-2.8-3.3-4.7-6.5-4.7Z"></path>
  <circle cx="12" cy="7.5" r="3.5"></circle>
  <!-- left user -->
  <path d="M4.2 18.2c-.3-2.1 1.4-4 3.9-4.9"></path>
  <path d="M7.4 6.8a3 3 0 1 0-1.8 5.6"></path>
  <!-- right user -->
  <path d="M19.8 18.2c.3-2.1-1.4-4-3.9-4.9"></path>
  <path d="M16.6 6.8a3 3 0 1 1 1.8 5.6"></path>
</svg>
